<svg xmlns="http://www.w3.org/2000/svg" width="1440" height="1093" fill="none"><circle cx="1292" cy="750" r="16" fill="#fff"/><circle cx="943" cy="1012" r="25" fill="#fff"/><circle cx="74.5" cy="587.5" r="9.5" fill="#fff"/><circle cx="1232" cy="267" r="13" fill="#fff"/><circle cx="1395.5" cy="194.5" r="5.5" fill="#fff"/><circle cx="445" cy="358" r="3" fill="#fff"/><circle cx="406.5" cy="621.5" r="5.5" fill="#fff"/><circle cx="308" cy="240" r="9" fill="#fff"/><circle cx="304.5" cy="981.5" r="5.5" fill="#fff"/><circle cx="475" cy="766" r="3" fill="#fff"/><circle cx="682" cy="851" r="3" fill="#fff"/><circle cx="605" cy="313" r="3" fill="#fff"/><circle cx="1325" cy="27" r="3" fill="#fff"/><circle cx="493" cy="114" r="3" fill="#fff"/><circle cx="275" cy="49" r="3" fill="#fff"/><circle cx="797" cy="891" r="3" fill="#fff"/><circle cx="1305.5" cy="522.5" r="31.5" fill="#FF323F"/><circle cx="272" cy="569" r="3" fill="#111"/><circle cx="833.5" cy="817.5" r="13.5" fill="#411D37"/><circle cx="1250" cy="952" r="3" fill="#411D37"/><circle cx="740.5" cy="283.5" r="13.5" fill="#ff6400"/><circle cx="281" cy="763" r="3" fill="#411D37"/><circle cx="463" cy="168" r="3" fill="#411D37"/><circle cx="36" cy="171" r="3" fill="#411D37"/><circle cx="547" cy="857" r="3" fill="#411D37"/><circle cx="637" cy="335" r="3" fill="#411D37"/><circle cx="27" cy="810" r="44" fill="#ff6400"/><circle cx="1442" cy="776" r="33" fill="#411D37"/><circle cx="1352" cy="307" r="9" fill="#411D37"/><circle cx="1367" cy="636" r="9" fill="#411D37"/><circle cx="111" cy="961" r="9" fill="#411D37"/><circle cx="111" cy="320" r="9" fill="#411D37"/><circle cx="834" cy="46" r="9" fill="#411D37"/><circle cx="1274" cy="1049" r="44" fill="url(#a)"/><circle cx="347" cy="891" r="3" fill="#FF323F" filter="url(#b)"/><circle cx="463" cy="461" r="3" fill="#FF323F" filter="url(#c)"/><circle cx="1321.5" cy="899.5" r="5.5" fill="#ff6400" filter="url(#d)"/><circle cx="560.5" cy="240.5" r="5.5" fill="#FF323F" filter="url(#e)"/><circle cx="581" cy="970" r="106" fill="#ff6400"/><circle cx="536" cy="24" r="58" fill="#FF323F"/><circle cx="-10" cy="456" r="43" fill="#FF323F"/><defs><filter id="b" width="110" height="110" x="292" y="857" filterUnits="userSpaceOnUse" color-interpolation-filters="sRGB"><feFlood flood-opacity="0" result="BackgroundImageFix"/><feColorMatrix in="SourceAlpha" values="0 0 0 0 0 0 0 0 0 0 0 0 0 0 0 0 0 0 127 0"/><feOffset dy="21"/><feGaussianBlur stdDeviation="26"/><feColorMatrix values="0 0 0 0 1 0 0 0 0 0.14902 0 0 0 0 0.2 0 0 0 0.35 0"/><feBlend in2="BackgroundImageFix" result="effect1_dropShadow"/><feBlend in="SourceGraphic" in2="effect1_dropShadow" result="shape"/></filter><filter id="c" width="110" height="110" x="408" y="427" filterUnits="userSpaceOnUse" color-interpolation-filters="sRGB"><feFlood flood-opacity="0" result="BackgroundImageFix"/><feColorMatrix in="SourceAlpha" values="0 0 0 0 0 0 0 0 0 0 0 0 0 0 0 0 0 0 127 0"/><feOffset dy="21"/><feGaussianBlur stdDeviation="26"/><feColorMatrix values="0 0 0 0 1 0 0 0 0 0.14902 0 0 0 0 0.2 0 0 0 0.35 0"/><feBlend in2="BackgroundImageFix" result="effect1_dropShadow"/><feBlend in="SourceGraphic" in2="effect1_dropShadow" result="shape"/></filter><filter id="d" width="115" height="115" x="1264" y="863" filterUnits="userSpaceOnUse" color-interpolation-filters="sRGB"><feFlood flood-opacity="0" result="BackgroundImageFix"/><feColorMatrix in="SourceAlpha" values="0 0 0 0 0 0 0 0 0 0 0 0 0 0 0 0 0 0 127 0"/><feOffset dy="21"/><feGaussianBlur stdDeviation="26"/><feColorMatrix values="0 0 0 0 1 0 0 0 0 0.14902 0 0 0 0 0.2 0 0 0 0.35 0"/><feBlend in2="BackgroundImageFix" result="effect1_dropShadow"/><feBlend in="SourceGraphic" in2="effect1_dropShadow" result="shape"/></filter><filter id="e" width="115" height="115" x="503" y="204" filterUnits="userSpaceOnUse" color-interpolation-filters="sRGB"><feFlood flood-opacity="0" result="BackgroundImageFix"/><feColorMatrix in="SourceAlpha" values="0 0 0 0 0 0 0 0 0 0 0 0 0 0 0 0 0 0 127 0"/><feOffset dy="21"/><feGaussianBlur stdDeviation="26"/><feColorMatrix values="0 0 0 0 1 0 0 0 0 0.14902 0 0 0 0 0.2 0 0 0 0.35 0"/><feBlend in2="BackgroundImageFix" result="effect1_dropShadow"/><feBlend in="SourceGraphic" in2="effect1_dropShadow" result="shape"/></filter><linearGradient id="a" x1="1274" x2="1274" y1="1005" y2="1093" gradientUnits="userSpaceOnUse"><stop stop-color="#FF2633"/><stop offset="1" stop-color="#FF2633" stop-opacity=".47"/></linearGradient></defs></svg>