<?xml version="1.0" encoding="utf-8"?>
<!-- Generator: Adobe Illustrator 27.2.0, SVG Export Plug-In . SVG Version: 6.00 Build 0)  -->
<svg version="1.1" id="Laag_1" xmlns="http://www.w3.org/2000/svg" xmlns:xlink="http://www.w3.org/1999/xlink" x="0px" y="0px"
	 viewBox="0 0 209.8 46" style="enable-background:new 0 0 209.8 46;" xml:space="preserve">
<style type="text/css">
	.st0{fill:#FFFFFF;}
	.st1{fill:#EDEDEB;}
	.st2{fill:url(#SVGID_1_);}
	.st3{fill:#F1F1EF;}
	.st4{fill:url(#SVGID_00000019654930184682304760000013516707707256054958_);}
</style>
<g transform="matrix(0.048330001533031464,0,0,0.048330001533031464,12.125749588012695,12.125749588012695)">
	<g transform="matrix(1,0,0,1,320.70599365234375,265.4079895019531)">
		<path class="st0" d="M-77.4-111.1c14.5-22.9,25.7-47.6,33.2-73.5c30.5,65.4,96.8,110.9,173.6,110.9v66.6c-0.2,0-0.4,0-0.6,0
			c-105.5,0-191.4,86-191.4,191.7h-66.5v0C-129.3,88-76.2,3.7,2.4-40.6C-28.9-58.4-56.1-82.4-77.4-111.1z"/>
	</g>
	<g transform="matrix(1,0,0,1,128.95199584960938,184.08900451660156)">
		<path class="st0" d="M44.3,184.1c-29.5-62.6-91.7-106.7-164.5-110c-2.9,0.1-5.8,0.1-8.8,0.1v-67c2.9,0,5.9,0.1,8.8,0.1
			C-72.4,5.2-27.7-14.4,6.4-48.5c36.2-36.2,56-84.4,56-135.6H129c0,69-26.8,133.8-75.6,182.6C36.7,15.3,18.1,29.4-1.9,40.8
			C29.2,58.5,56.3,82.5,77.6,111C63.3,133.5,52,158,44.3,184.1z"/>
	</g>
</g>
<g>
	<path class="st0" d="M46.3,17.9c0.6-0.4,1.4-0.5,2.2-0.5V20h-0.7c-1,0-1.8,0.3-2.3,0.8c-0.5,0.5-0.8,1.4-0.8,2.7v6.5h-2.6V17.5h2.6
		v1.8C45.2,18.7,45.7,18.2,46.3,17.9z"/>
	<path class="st0" d="M62.2,24.7h-9.5c0.1,1,0.4,1.8,1.1,2.4c0.7,0.6,1.5,0.9,2.4,0.9c1.4,0,2.4-0.6,2.9-1.7h2.8
		c-0.4,1.1-1.1,2.1-2,2.8c-1,0.7-2.2,1.1-3.7,1.1c-1.2,0-2.2-0.3-3.2-0.8c-0.9-0.5-1.7-1.3-2.2-2.2c-0.5-1-0.8-2.1-0.8-3.4
		c0-1.3,0.3-2.4,0.8-3.4c0.5-1,1.2-1.7,2.2-2.2c0.9-0.5,2-0.8,3.2-0.8c1.2,0,2.2,0.3,3.1,0.8c0.9,0.5,1.6,1.2,2.1,2.1
		c0.5,0.9,0.8,2,0.8,3.2C62.2,23.9,62.2,24.3,62.2,24.7z M59.6,22.6c0-0.9-0.4-1.7-1-2.3c-0.7-0.6-1.5-0.9-2.5-0.9
		c-0.9,0-1.6,0.3-2.3,0.8s-1,1.3-1.1,2.3H59.6z"/>
	<path class="st0" d="M82.4,17.9c0.8,0.4,1.4,1,1.8,1.8s0.7,1.8,0.7,2.9v7.3h-2.5V23c0-1.1-0.3-2-0.8-2.6c-0.6-0.6-1.3-0.9-2.3-0.9
		s-1.7,0.3-2.3,0.9c-0.6,0.6-0.8,1.4-0.8,2.6v6.9h-2.5V23c0-1.1-0.3-2-0.8-2.6c-0.6-0.6-1.3-0.9-2.3-0.9c-1,0-1.7,0.3-2.3,0.9
		c-0.6,0.6-0.8,1.4-0.8,2.6v6.9h-2.6V17.5h2.6v1.4c0.4-0.5,1-0.9,1.6-1.2c0.6-0.3,1.3-0.4,2.1-0.4c1,0,1.9,0.2,2.7,0.6
		c0.8,0.4,1.4,1,1.8,1.8c0.4-0.8,1-1.3,1.8-1.8c0.8-0.4,1.6-0.7,2.6-0.7C80.7,17.3,81.6,17.5,82.4,17.9z"/>
	<path class="st0" d="M88.1,20.3c0.5-1,1.2-1.7,2.1-2.2c0.9-0.5,2-0.8,3.1-0.8c1.5,0,2.7,0.4,3.7,1.1c1,0.7,1.6,1.7,2,3h-2.8
		c-0.2-0.6-0.6-1.1-1.1-1.4s-1.1-0.5-1.9-0.5c-1,0-1.9,0.4-2.5,1.1c-0.6,0.7-0.9,1.8-0.9,3.1c0,1.3,0.3,2.4,0.9,3.1
		c0.6,0.8,1.5,1.1,2.5,1.1c1.5,0,2.5-0.7,2.9-2h2.8c-0.4,1.3-1,2.3-2,3s-2.2,1.1-3.7,1.1c-1.2,0-2.2-0.3-3.1-0.8
		c-0.9-0.5-1.6-1.3-2.1-2.2c-0.5-1-0.8-2.1-0.8-3.4C87.3,22.4,87.5,21.3,88.1,20.3z"/>
	<path class="st0" d="M103.8,29.3c-0.9-0.5-1.7-1.3-2.2-2.2c-0.5-1-0.8-2.1-0.8-3.4c0-1.3,0.3-2.4,0.8-3.4c0.6-1,1.3-1.7,2.3-2.2
		c1-0.5,2-0.8,3.2-0.8s2.3,0.3,3.2,0.8c1,0.5,1.7,1.3,2.3,2.2s0.8,2.1,0.8,3.4c0,1.3-0.3,2.4-0.9,3.4c-0.6,1-1.3,1.7-2.3,2.3
		s-2.1,0.8-3.2,0.8C105.8,30.1,104.8,29.9,103.8,29.3z M108.9,27.4c0.6-0.3,1-0.8,1.4-1.4c0.4-0.6,0.5-1.4,0.5-2.3
		c0-0.9-0.2-1.7-0.5-2.3c-0.3-0.6-0.8-1.1-1.4-1.4c-0.6-0.3-1.2-0.5-1.8-0.5c-0.7,0-1.3,0.2-1.8,0.5c-0.6,0.3-1,0.8-1.3,1.4
		s-0.5,1.4-0.5,2.3c0,1.3,0.3,2.4,1,3.1s1.5,1.1,2.6,1.1C107.7,27.9,108.3,27.7,108.9,27.4z"/>
</g>
</svg>
